STARTFONT 2.1
COMMENT  
COMMENT  (c) Copyright 1994 by Star Division GmbH
COMMENT  
COMMENT  WARNING:  This bdf file was generated from a font server using
COMMENT  fstobdf.  The resulting font is subject to the same copyright,
COMMENT  license, and trademark restrictions as the original font.  The
COMMENT  authors and distributors of fstobdf disclaim all liability for
COMMENT  misuse of the program or its output.
COMMENT  
FONT -Star Division-starmath-medium-r-normal--21-200-75-75-p-0-iso8859-1
SIZE 20 75 75
FONTBOUNDINGBOX 39 26 -3 -8
STARTPROPERTIES 54
FONT "-Star Division-starmath-medium-r-normal--21-200-75-75-p-0-iso8859-1"
FONT_TYPE "TrueType"
TECHNOLOGY "TrueType"
FOUNDRY ""
FAMILY_NAME "starmath"
WEIGHT_NAME "medium"
SLANT "r"
SETWIDTH_NAME "normal"
ADD_STYLE_NAME ""
PIXEL_SIZE 20
POINT_SIZE 200
RESOLUTION_X 75
RESOLUTION_Y 75
SPACING "p"
AVERAGE_WIDTH 120
CHARSET_REGISTRY "iso8859"
CHARSET_ENCODING "1"
AVG_LOWERCASE_WIDTH 10
RAW_AVG_LOWERCASE_WIDTH 500
SUBSCRIPT_X 0
SUBSCRIPT_Y 9
SUBSCRIPT_SIZE 10
RAW_SUBSCRIPT_X 0
RAW_SUBSCRIPT_Y 499
RAW_SUBSCRIPT_SIZE 500
SUPERSCRIPT_X 0
SUPERSCRIPT_Y 5
SUPERSCRIPT_SIZE 10
RAW_SUPERSCRIPT_X 0
RAW_SUPERSCRIPT_Y 250
RAW_SUPERSCRIPT_SIZE 500
STRIKEOUT_ASCENT 6
STRIKEOUT_DESCENT -4
RAW_STRIKEOUT_ASCENT 299
RAW_STRIKEOUT_DESCENT -249
RELATIVE_SETWIDTH 50
RELATIVE_WEIGHT 40
_GALLIUM_PANOSE "5 11 5 0 0 0 0 0 0 0"
UNDERLINE_POSITION 1
UNDERLINE_THICKNESS 1
RAW_UNDERLINE_POSITION 99
RAW_UNDERLINE_THICKNESS 50
ITALIC_ANGLE 0
RAW_PIXEL_SIZE 1000
RAW_POINT_SIZE 9636
FONT_ASCENT 18
FONT_DESCENT 7
RAW_ASCENT 863
RAW_DESCENT 325
RAW_AVERAGE_WIDTH 6260
COPYRIGHT "(c) Copyright 1994 by Star Division GmbH"
FACE_NAME "StarMath"
NOTICE "Created by Type-Designer 2.5"
DEFAULT_CHAR 0
ENDPROPERTIES
CHARS 223
STARTCHAR exclam
ENCODING 33
SWIDTH 288 0
DWIDTH 6 0
BBX 2 15 2 0
ATTRIBUTES 0115
BITMAP
c0
c0
c0
c0
c0
c0
c0
c0
c0
c0
c0
00
00
c0
c0
ENDCHAR
STARTCHAR quotedbl
ENCODING 34
SWIDTH 336 0
DWIDTH 7 0
BBX 5 5 1 10
ATTRIBUTES 0162
BITMAP
d8
d8
d8
d8
d8
ENDCHAR
STARTCHAR numbersign
ENCODING 35
SWIDTH 576 0
DWIDTH 12 0
BBX 11 15 0 0
ATTRIBUTES 022b
BITMAP
08c0
08c0
18c0
1880
ffe0
ffe0
1080
3180
3100
ffe0
ffe0
2300
6300
6200
4200
ENDCHAR
STARTCHAR dollar
ENCODING 36
SWIDTH 960 0
DWIDTH 20 0
BBX 20 16 0 -1
ATTRIBUTES 03c0
BITMAP
002000
384000
484000
cc8000
cc8000
cd0000
4d0000
7a0000
0270c0
048920
058f30
098f30
098f30
118f30
10f9e0
100000
ENDCHAR
STARTCHAR percent
ENCODING 37
SWIDTH 816 0
DWIDTH 17 0
BBX 16 15 0 -1
ATTRIBUTES 0340
BITMAP
3808
4810
cc10
cc20
cc40
4c40
7880
010c
0112
0233
0433
0433
0833
1016
1008
ENDCHAR
STARTCHAR ampersand
ENCODING 38
SWIDTH 768 0
DWIDTH 16 0
BBX 15 14 0 0
ATTRIBUTES 0309
BITMAP
0780
0c40
0840
1840
0d80
0e3c
0e10
3610
6720
43e0
c1c0
c1e2
737c
3c38
ENDCHAR
STARTCHAR apostrophe
ENCODING 39
SWIDTH 720 0
DWIDTH 15 0
BBX 14 9 0 1
ATTRIBUTES 02c8
BITMAP
0060
3998
4508
8304
8204
8204
c70c
7c98
0070
ENDCHAR
STARTCHAR parenleft
ENCODING 40
SWIDTH 336 0
DWIDTH 7 0
BBX 4 23 2 -5
ATTRIBUTES 0153
BITMAP
10
10
20
40
40
40
c0
80
80
80
80
80
80
80
80
80
40
40
40
40
20
10
10
ENDCHAR
STARTCHAR parenright
ENCODING 41
SWIDTH 336 0
DWIDTH 7 0
BBX 4 23 1 -5
ATTRIBUTES 0153
BITMAP
80
40
40
20
20
20
20
10
10
10
10
10
10
10
10
10
10
20
20
20
20
40
80
ENDCHAR
STARTCHAR asterisk
ENCODING 42
SWIDTH 384 0
DWIDTH 8 0
BBX 7 6 1 9
ATTRIBUTES 0185
BITMAP
10
92
fe
38
68
44
ENDCHAR
STARTCHAR plus
ENCODING 43
SWIDTH 576 0
DWIDTH 12 0
BBX 10 10 1 2
ATTRIBUTES 0247
BITMAP
0c00
0c00
0c00
0c00
ffc0
ffc0
0c00
0c00
0c00
0c00
ENDCHAR
STARTCHAR comma
ENCODING 44
SWIDTH 288 0
DWIDTH 6 0
BBX 2 5 2 -3
ATTRIBUTES 0115
BITMAP
c0
c0
40
40
80
ENDCHAR
STARTCHAR minus
ENCODING 45
SWIDTH 336 0
DWIDTH 7 0
BBX 6 2 1 4
ATTRIBUTES 014c
BITMAP
fc
fc
ENDCHAR
STARTCHAR period
ENCODING 46
SWIDTH 288 0
DWIDTH 6 0
BBX 2 2 2 0
ATTRIBUTES 0115
BITMAP
c0
c0
ENDCHAR
STARTCHAR slash
ENCODING 47
SWIDTH 288 0
DWIDTH 6 0
BBX 6 16 0 0
ATTRIBUTES 0115
BITMAP
0c
0c
08
08
18
18
10
30
30
20
20
60
60
40
c0
c0
ENDCHAR
STARTCHAR 0
ENCODING 48
SWIDTH 576 0
DWIDTH 12 0
BBX 10 15 1 0
ATTRIBUTES 022b
BITMAP
1e00
3f00
7380
e180
c0c0
c0c0
c0c0
c0c0
c0c0
c0c0
c0c0
61c0
7380
3f00
1e00
ENDCHAR
STARTCHAR 1
ENCODING 49
SWIDTH 576 0
DWIDTH 12 0
BBX 6 15 2 0
ATTRIBUTES 022b
BITMAP
0c
1c
3c
7c
cc
0c
0c
0c
0c
0c
0c
0c
0c
0c
0c
ENDCHAR
STARTCHAR 2
ENCODING 50
SWIDTH 576 0
DWIDTH 12 0
BBX 10 15 1 0
ATTRIBUTES 022b
BITMAP
1e00
7f80
e1c0
c0c0
40c0
00c0
0180
0300
0600
0c00
1800
3000
6000
ffc0
ffc0
ENDCHAR
STARTCHAR 3
ENCODING 51
SWIDTH 576 0
DWIDTH 12 0
BBX 10 15 1 0
ATTRIBUTES 022b
BITMAP
1e00
7f00
6380
c180
0180
0380
0e00
0300
0180
00c0
00c0
c1c0
e380
7f80
1e00
ENDCHAR
STARTCHAR 4
ENCODING 52
SWIDTH 576 0
DWIDTH 12 0
BBX 11 15 0 0
ATTRIBUTES 022b
BITMAP
0180
0380
0780
0780
0d80
1980
1980
3180
6180
6180
ffe0
ffe0
0180
0180
0180
ENDCHAR
STARTCHAR 5
ENCODING 53
SWIDTH 576 0
DWIDTH 12 0
BBX 10 15 1 0
ATTRIBUTES 022b
BITMAP
3f80
7f80
6000
6000
6000
5e00
ff80
e380
00c0
00c0
00c0
c1c0
e380
7f00
1e00
ENDCHAR
STARTCHAR 6
ENCODING 54
SWIDTH 576 0
DWIDTH 12 0
BBX 10 15 1 0
ATTRIBUTES 022b
BITMAP
1e00
3f80
6180
60c0
c000
cf00
df80
f3c0
e1c0
c0c0
c0c0
41c0
6380
3f80
1e00
ENDCHAR
STARTCHAR 7
ENCODING 55
SWIDTH 576 0
DWIDTH 12 0
BBX 10 15 1 0
ATTRIBUTES 022b
BITMAP
ffc0
ffc0
0180
0180
0300
0600
0600
0c00
0c00
1800
1800
1800
1800
1000
3000
ENDCHAR
STARTCHAR 8
ENCODING 56
SWIDTH 576 0
DWIDTH 12 0
BBX 10 15 1 0
ATTRIBUTES 022b
BITMAP
1e00
7f00
6380
4180
4180
6380
3f00
3f00
6380
c1c0
c0c0
c1c0
e3c0
7f80
1e00
ENDCHAR
STARTCHAR 9
ENCODING 57
SWIDTH 576 0
DWIDTH 12 0
BBX 10 15 1 0
ATTRIBUTES 022b
BITMAP
1e00
7f00
7380
e180
c0c0
c0c0
e1c0
73c0
7ec0
3cc0
00c0
c1c0
6380
7f00
1e00
ENDCHAR
STARTCHAR colon
ENCODING 58
SWIDTH 288 0
DWIDTH 6 0
BBX 2 11 2 0
ATTRIBUTES 0115
BITMAP
c0
c0
00
00
00
00
00
00
00
c0
c0
ENDCHAR
STARTCHAR semicolon
ENCODING 59
SWIDTH 288 0
DWIDTH 6 0
BBX 2 14 2 -3
ATTRIBUTES 0115
BITMAP
c0
c0
00
00
00
00
00
00
00
c0
c0
40
40
80
ENDCHAR
STARTCHAR less
ENCODING 60
SWIDTH 576 0
DWIDTH 12 0
BBX 10 11 1 2
ATTRIBUTES 0247
BITMAP
0040
00c0
07c0
1e00
f800
c000
f000
1e00
0780
01c0
0040
ENDCHAR
STARTCHAR equal
ENCODING 61
SWIDTH 816 0
DWIDTH 17 0
BBX 12 4 2 4
ATTRIBUTES 031a
BITMAP
fff0
0000
0000
fff0
ENDCHAR
STARTCHAR greater
ENCODING 62
SWIDTH 576 0
DWIDTH 12 0
BBX 10 11 1 2
ATTRIBUTES 0247
BITMAP
8000
c000
f800
1e00
07c0
00c0
03c0
1e00
7800
e000
8000
ENDCHAR
STARTCHAR question
ENCODING 63
SWIDTH 576 0
DWIDTH 12 0
BBX 10 15 1 0
ATTRIBUTES 022b
BITMAP
0c00
0c00
0000
0c00
0c00
0c00
1800
3000
6000
c000
c080
e1c0
f380
7f80
1e00
ENDCHAR
STARTCHAR at
ENCODING 64
SWIDTH 816 0
DWIDTH 17 0
BBX 12 12 2 0
ATTRIBUTES 031a
BITMAP
0040
0080
0080
0100
fff0
0200
0400
fff0
0800
1000
1000
2000
ENDCHAR
STARTCHAR A
ENCODING 65
SWIDTH 816 0
DWIDTH 17 0
BBX 13 13 2 0
ATTRIBUTES 031a
BITMAP
0200
0200
0200
0200
0200
0200
fff8
0200
0200
0200
0200
0200
0200
ENDCHAR
STARTCHAR B
ENCODING 66
SWIDTH 816 0
DWIDTH 17 0
BBX 12 1 2 6
ATTRIBUTES 031a
BITMAP
fff0
ENDCHAR
STARTCHAR C
ENCODING 67
SWIDTH 720 0
DWIDTH 15 0
BBX 9 9 3 2
ATTRIBUTES 02d3
BITMAP
0800
0800
c980
eb80
1c00
3e00
eb80
4880
0800
ENDCHAR
STARTCHAR D
ENCODING 68
SWIDTH 816 0
DWIDTH 17 0
BBX 12 12 2 0
ATTRIBUTES 031a
BITMAP
8010
4020
2040
1080
0900
0600
0600
0900
1080
2040
4020
8010
ENDCHAR
STARTCHAR E
ENCODING 69
SWIDTH 576 0
DWIDTH 12 0
BBX 2 2 5 5
ATTRIBUTES 0242
BITMAP
c0
c0
ENDCHAR
STARTCHAR F
ENCODING 70
SWIDTH 816 0
DWIDTH 17 0
BBX 12 10 2 1
ATTRIBUTES 031a
BITMAP
0600
0600
0000
0000
fff0
0000
0000
0000
0600
0600
ENDCHAR
STARTCHAR G
ENCODING 71
SWIDTH 816 0
DWIDTH 17 0
BBX 13 12 2 0
ATTRIBUTES 031a
BITMAP
0200
0200
0200
0200
fff8
0200
0200
0200
0200
0000
0000
fff0
ENDCHAR
STARTCHAR H
ENCODING 72
SWIDTH 816 0
DWIDTH 17 0
BBX 13 12 2 0
ATTRIBUTES 031a
BITMAP
fff0
0000
0000
0200
0200
0200
0200
fff8
0200
0200
0200
0200
ENDCHAR
STARTCHAR I
ENCODING 73
SWIDTH 816 0
DWIDTH 17 0
BBX 12 12 2 0
ATTRIBUTES 031a
BITMAP
0f80
3240
6220
4210
4210
fff0
c210
4210
6230
3260
3fc0
0f80
ENDCHAR
STARTCHAR J
ENCODING 74
SWIDTH 816 0
DWIDTH 17 0
BBX 12 12 2 0
ATTRIBUTES 031a
BITMAP
0f00
30c0
6020
4010
8010
fff0
8010
c010
4010
6020
30c0
0f00
ENDCHAR
STARTCHAR K
ENCODING 75
SWIDTH 816 0
DWIDTH 17 0
BBX 12 12 2 0
ATTRIBUTES 031a
BITMAP
0f00
30c0
7060
58a0
8d10
8610
8610
8910
50a0
6060
30c0
0f00
ENDCHAR
STARTCHAR L
ENCODING 76
SWIDTH 816 0
DWIDTH 17 0
BBX 12 12 2 0
ATTRIBUTES 031a
BITMAP
0f00
30c0
4060
40a0
8110
8210
8410
8810
5020
6020
30c0
0f00
ENDCHAR
STARTCHAR M
ENCODING 77
SWIDTH 816 0
DWIDTH 17 0
BBX 12 12 2 0
ATTRIBUTES 031a
BITMAP
0f00
30c0
4020
4020
8010
8610
8610
8010
4020
4020
30c0
0f00
ENDCHAR
STARTCHAR N
ENCODING 78
SWIDTH 816 0
DWIDTH 17 0
BBX 12 12 2 0
ATTRIBUTES 031a
BITMAP
8010
8010
8010
8010
8010
8010
8010
8010
4020
4020
30c0
0f00
ENDCHAR
STARTCHAR O
ENCODING 79
SWIDTH 816 0
DWIDTH 17 0
BBX 12 12 2 0
ATTRIBUTES 031a
BITMAP
0f00
30c0
4020
4020
8010
8010
8010
8010
8010
8010
8010
8010
ENDCHAR
STARTCHAR P
ENCODING 80
SWIDTH 816 0
DWIDTH 17 0
BBX 12 10 2 2
ATTRIBUTES 031a
BITMAP
0030
00e0
0700
1c00
6000
3800
0e00
01c0
0070
0010
ENDCHAR
STARTCHAR Q
ENCODING 81
SWIDTH 816 0
DWIDTH 17 0
BBX 12 10 2 2
ATTRIBUTES 031a
BITMAP
c000
7000
0e00
0380
0060
01c0
0700
3800
e000
8000
ENDCHAR
STARTCHAR R
ENCODING 82
SWIDTH 816 0
DWIDTH 17 0
BBX 12 12 2 0
ATTRIBUTES 031a
BITMAP
0030
00e0
0700
1c00
6000
3800
0e00
01c0
0070
0010
0000
fff0
ENDCHAR
STARTCHAR S
ENCODING 83
SWIDTH 816 0
DWIDTH 17 0
BBX 12 12 2 0
ATTRIBUTES 031a
BITMAP
c000
7000
0e00
0380
0060
01c0
0700
3800
e000
8000
0000
fff0
ENDCHAR
STARTCHAR T
ENCODING 84
SWIDTH 816 0
DWIDTH 17 0
BBX 12 13 2 0
ATTRIBUTES 031a
BITMAP
0010
00e0
0380
1c00
7000
3000
0e00
8180
7070
1c10
0380
00e0
0010
ENDCHAR
STARTCHAR U
ENCODING 85
SWIDTH 816 0
DWIDTH 17 0
BBX 12 13 2 0
ATTRIBUTES 031a
BITMAP
8000
7000
1c00
0380
00e0
00c0
0700
1810
e0e0
8380
1c00
7000
8000
ENDCHAR
STARTCHAR V
ENCODING 86
SWIDTH 1104 0
DWIDTH 23 0
BBX 19 12 2 0
ATTRIBUTES 045d
BITMAP
001020
0060c0
018300
060c00
183000
60c000
60c000
183000
060c00
018300
0060c0
001020
ENDCHAR
STARTCHAR W
ENCODING 87
SWIDTH 1104 0
DWIDTH 23 0
BBX 19 12 2 0
ATTRIBUTES 045d
BITMAP
810000
60c000
183000
060c00
018300
0060c0
0060c0
018300
060c00
183000
60c000
810000
ENDCHAR
STARTCHAR X
ENCODING 88
SWIDTH 816 0
DWIDTH 17 0
BBX 12 4 2 6
ATTRIBUTES 031a
BITMAP
01e0
8710
9c10
7000
ENDCHAR
STARTCHAR Y
ENCODING 89
SWIDTH 816 0
DWIDTH 17 0
BBX 12 7 2 3
ATTRIBUTES 031a
BITMAP
01e0
8710
9c10
7000
0000
0000
fff0
ENDCHAR
STARTCHAR Z
ENCODING 90
SWIDTH 816 0
DWIDTH 17 0
BBX 12 7 3 3
ATTRIBUTES 031a
BITMAP
80c0
87a0
9e10
7000
80e0
8f10
7810
ENDCHAR
STARTCHAR bracketleft
ENCODING 91
SWIDTH 816 0
DWIDTH 17 0
BBX 12 14 2 0
ATTRIBUTES 031a
BITMAP
0810
0820
7b70
8aa0
8fa0
8a20
fba0
0000
0000
fff0
0000
0000
0000
fff0
ENDCHAR
STARTCHAR backslash
ENCODING 92
SWIDTH 816 0
DWIDTH 17 0
BBX 12 8 2 2
ATTRIBUTES 031a
BITMAP
fff0
0000
0000
fff0
0000
0000
0000
fff0
ENDCHAR
STARTCHAR bracketright
ENCODING 93
SWIDTH 720 0
DWIDTH 15 0
BBX 13 9 0 1
ATTRIBUTES 02c8
BITMAP
0060
3998
4500
8300
8200
8200
c500
7c88
0070
ENDCHAR
STARTCHAR asciicircum
ENCODING 94
SWIDTH 480 0
DWIDTH 10 0
BBX 10 15 0 -1
ATTRIBUTES 01ee
BITMAP
0f00
1100
2080
0040
0e40
1940
30c0
6040
6040
c080
c080
c100
c100
6600
3800
ENDCHAR
STARTCHAR underscore
ENCODING 95
SWIDTH 816 0
DWIDTH 17 0
BBX 12 12 2 0
ATTRIBUTES 031a
BITMAP
0ff0
3000
4000
4000
8000
8000
8000
8000
4000
4000
3000
0ff0
ENDCHAR
STARTCHAR grave
ENCODING 96
SWIDTH 816 0
DWIDTH 17 0
BBX 12 12 2 0
ATTRIBUTES 031a
BITMAP
ff00
00c0
0020
0020
0010
0010
0010
0010
0020
0020
00c0
ff00
ENDCHAR
STARTCHAR a
ENCODING 97
SWIDTH 816 0
DWIDTH 17 0
BBX 12 12 2 0
ATTRIBUTES 031a
BITMAP
3ff0
6000
c000
8000
8000
c000
6000
3ff0
0000
0000
0000
fff0
ENDCHAR
STARTCHAR b
ENCODING 98
SWIDTH 816 0
DWIDTH 17 0
BBX 12 12 2 0
ATTRIBUTES 031a
BITMAP
ffc0
0060
0030
0010
0010
0030
0060
ffc0
0000
0000
0000
fff0
ENDCHAR
STARTCHAR c
ENCODING 99
SWIDTH 816 0
DWIDTH 17 0
BBX 12 15 2 -1
ATTRIBUTES 031a
BITMAP
0020
0040
0ff0
3080
6180
4100
8200
8200
8400
8400
4800
5800
3000
2ff0
6000
ENDCHAR
STARTCHAR d
ENCODING 100
SWIDTH 816 0
DWIDTH 17 0
BBX 12 14 2 -1
ATTRIBUTES 031a
BITMAP
0080
ff80
01c0
0120
0230
0610
0410
0810
0810
1020
1020
20c0
ff00
4000
ENDCHAR
STARTCHAR e
ENCODING 101
SWIDTH 816 0
DWIDTH 17 0
BBX 12 14 2 -1
ATTRIBUTES 031a
BITMAP
0040
3ff0
6080
c100
8100
8200
c400
6400
1ff0
1000
1000
1000
fff0
4000
ENDCHAR
STARTCHAR f
ENCODING 102
SWIDTH 816 0
DWIDTH 17 0
BBX 12 14 2 -1
ATTRIBUTES 031a
BITMAP
0040
ffc0
00a0
0110
0210
0210
0430
0460
ffc0
1800
1000
3000
fff0
6000
ENDCHAR
STARTCHAR g
ENCODING 103
SWIDTH 720 0
DWIDTH 15 0
BBX 11 11 0 0
ATTRIBUTES 02c8
BITMAP
1fe0
2000
4000
8000
8000
ffe0
8000
4000
4000
2000
1fe0
ENDCHAR
STARTCHAR h
ENCODING 104
SWIDTH 720 0
DWIDTH 15 0
BBX 11 15 0 -2
ATTRIBUTES 02c8
BITMAP
0040
00c0
1fe0
3100
4100
c200
8200
ffe0
8c00
4800
7000
3000
3fe0
2000
4000
ENDCHAR
STARTCHAR i
ENCODING 105
SWIDTH 720 0
DWIDTH 15 0
BBX 11 11 0 0
ATTRIBUTES 02c8
BITMAP
1fe0
2000
4000
8000
8000
ffe0
8000
4000
4000
2000
1fe0
ENDCHAR
STARTCHAR j
ENCODING 106
SWIDTH 528 0
DWIDTH 11 0
BBX 9 14 0 0
ATTRIBUTES 0224
BITMAP
ff80
0080
0080
0080
0080
0080
7f80
0080
0080
0080
0080
0080
0080
ff80
ENDCHAR
STARTCHAR k
ENCODING 107
SWIDTH 432 0
DWIDTH 9 0
BBX 8 10 0 0
ATTRIBUTES 01b6
BITMAP
78
0c
06
03
03
7f
03
06
0c
f8
ENDCHAR
STARTCHAR l
ENCODING 108
SWIDTH 816 0
DWIDTH 17 0
BBX 13 14 0 0
ATTRIBUTES 0336
BITMAP
4020
c060
c030
7038
3848
5c40
4e80
4700
41c0
40e0
6070
7030
3010
7010
ENDCHAR
STARTCHAR m
ENCODING 109
SWIDTH 672 0
DWIDTH 14 0
BBX 13 15 0 -1
ATTRIBUTES 02ae
BITMAP
3f08
27f0
40c0
4000
2070
0040
0060
0060
0070
0030
0030
1010
fc30
0e60
0780
ENDCHAR
STARTCHAR n
ENCODING 110
SWIDTH 816 0
DWIDTH 17 0
BBX 15 14 0 0
ATTRIBUTES 031a
BITMAP
3c38
46dc
830c
8304
c308
6310
33f0
1318
2318
0318
0318
1218
741a
381c
ENDCHAR
STARTCHAR o
ENCODING 111
SWIDTH 960 0
DWIDTH 20 0
BBX 14 16 0 -5
ATTRIBUTES 03da
BITMAP
0400
0800
10f8
310c
220c
640c
680c
7118
7310
3220
53c0
5800
8800
8800
b000
4000
ENDCHAR
STARTCHAR p
ENCODING 112
SWIDTH 480 0
DWIDTH 10 0
BBX 10 20 0 -5
ATTRIBUTES 01f4
BITMAP
0080
0140
0200
0200
0200
0600
1f80
0600
0400
0400
0c00
0c00
0800
0800
1800
1800
1000
9000
e000
4000
ENDCHAR
STARTCHAR q
ENCODING 113
SWIDTH 816 0
DWIDTH 17 0
BBX 12 15 2 -3
ATTRIBUTES 031a
BITMAP
0010
0030
0060
00c0
1980
0f00
0600
0d00
1900
3080
6080
fff0
0080
0080
0080
ENDCHAR
STARTCHAR r
ENCODING 114
SWIDTH 816 0
DWIDTH 17 0
BBX 12 13 2 0
ATTRIBUTES 031a
BITMAP
0200
0200
0110
00e0
0380
0c80
7080
3080
0e80
0380
01f0
0110
0200
ENDCHAR
STARTCHAR s
ENCODING 115
SWIDTH 384 0
DWIDTH 8 0
BBX 1 19 4 -3
ATTRIBUTES 018d
BITMAP
80
80
80
80
80
80
80
80
80
80
80
80
80
80
80
80
80
80
80
ENDCHAR
STARTCHAR t
ENCODING 116
SWIDTH 576 0
DWIDTH 12 0
BBX 6 19 3 -3
ATTRIBUTES 0242
BITMAP
84
84
84
84
84
84
84
84
84
84
84
84
84
84
84
84
84
84
84
ENDCHAR
STARTCHAR u
ENCODING 117
SWIDTH 672 0
DWIDTH 14 0
BBX 13 14 0 0
ATTRIBUTES 0292
BITMAP
0200
0200
0200
0200
0200
0200
0200
0200
0200
0200
0200
0200
0200
fff8
ENDCHAR
STARTCHAR v
ENCODING 118
SWIDTH 1008 0
DWIDTH 21 0
BBX 16 2 0 0
ATTRIBUTES 03e8
BITMAP
c183
c183
ENDCHAR
STARTCHAR w
ENCODING 119
SWIDTH 1008 0
DWIDTH 21 0
BBX 16 3 0 5
ATTRIBUTES 03e8
BITMAP
4081
c183
4081
ENDCHAR
STARTCHAR x
ENCODING 120
SWIDTH 1008 0
DWIDTH 21 0
BBX 2 17 7 -2
ATTRIBUTES 03e8
BITMAP
40
c0
40
00
00
00
00
40
c0
40
00
00
00
00
40
c0
40
ENDCHAR
STARTCHAR y
ENCODING 121
SWIDTH 1008 0
DWIDTH 21 0
BBX 12 13 2 0
ATTRIBUTES 03e8
BITMAP
0010
0030
0020
0000
0000
0200
0600
0200
0000
0000
4000
c000
4000
ENDCHAR
STARTCHAR z
ENCODING 122
SWIDTH 1008 0
DWIDTH 21 0
BBX 12 13 2 0
ATTRIBUTES 03e8
BITMAP
4000
c000
8000
0000
0000
0200
0600
0200
0000
0000
0010
0030
0020
ENDCHAR
STARTCHAR braceleft
ENCODING 123
SWIDTH 912 0
DWIDTH 19 0
BBX 14 5 2 4
ATTRIBUTES 0388
BITMAP
7038
f03c
8ffc
d03c
6018
ENDCHAR
STARTCHAR bar
ENCODING 124
SWIDTH 912 0
DWIDTH 19 0
BBX 14 5 2 4
ATTRIBUTES 0388
BITMAP
7038
f03c
ffe4
f024
6018
ENDCHAR
STARTCHAR braceright
ENCODING 125
SWIDTH 720 0
DWIDTH 15 0
BBX 15 3 0 4
ATTRIBUTES 02bb
BITMAP
000c
fffe
000c
ENDCHAR
STARTCHAR asciitilde
ENCODING 126
SWIDTH 480 0
DWIDTH 10 0
BBX 11 11 0 0
ATTRIBUTES 01f5
BITMAP
ffe0
8020
8020
8020
8020
8020
8020
8020
8020
8020
ffe0
ENDCHAR
STARTCHAR C000177
ENCODING 127
SWIDTH 480 0
DWIDTH 10 0
BBX 11 11 0 0
ATTRIBUTES 01f5
BITMAP
ffe0
8020
8020
8020
8020
8020
8020
8020
8020
8020
ffe0
ENDCHAR
STARTCHAR C000200
ENCODING 128
SWIDTH 576 0
DWIDTH 12 0
BBX 8 20 2 -3
ATTRIBUTES 0242
BITMAP
06
0b
0a
18
18
18
18
18
18
18
18
18
18
18
18
18
18
10
d0
60
ENDCHAR
STARTCHAR C000201
ENCODING 129
SWIDTH 864 0
DWIDTH 18 0
BBX 14 20 2 -3
ATTRIBUTES 0356
BITMAP
0618
0b2c
0a60
1860
1860
1860
1860
1860
1860
1860
1860
1860
1860
1860
1860
1860
1860
1040
d340
6380
ENDCHAR
STARTCHAR C000202
ENCODING 130
SWIDTH 1104 0
DWIDTH 23 0
BBX 19 20 2 -3
ATTRIBUTES 046c
BITMAP
061860
0b2ca0
0a60a0
186080
186180
186180
186180
186180
186180
186180
186180
186180
186180
186180
186180
186180
186100
104100
d34d00
638e00
ENDCHAR
STARTCHAR C000203
ENCODING 131
SWIDTH 624 0
DWIDTH 13 0
BBX 9 20 2 -3
ATTRIBUTES 0265
BITMAP
0700
0b00
0900
1800
1800
1800
1c00
7b00
5900
9880
9880
9880
5900
7b00
1c00
1800
1800
1000
5000
6000
ENDCHAR
STARTCHAR C000204
ENCODING 132
SWIDTH 912 0
DWIDTH 19 0
BBX 15 20 2 -3
ATTRIBUTES 037b
BITMAP
071c
0b2c
0924
1860
1860
1860
1fe0
3878
5864
9862
9862
9862
5864
3878
1fe0
1860
1860
1040
5140
6180
ENDCHAR
STARTCHAR C000205
ENCODING 133
SWIDTH 1152 0
DWIDTH 24 0
BBX 20 20 2 -3
ATTRIBUTES 048f
BITMAP
071c60
0b2ca0
092ca0
186080
186180
186180
1fff80
186180
7861e0
986190
986190
986190
5861e0
386180
1fff80
186180
186180
104100
514d00
618600
ENDCHAR
STARTCHAR C000206
ENCODING 134
SWIDTH 528 0
DWIDTH 11 0
BBX 11 17 1 0
ATTRIBUTES 0215
BITMAP
0020
0020
0040
0040
0040
0040
0080
0080
0080
2100
e100
3100
1200
1a00
0a00
0600
0400
ENDCHAR
STARTCHAR C000207
ENCODING 135
SWIDTH 528 0
DWIDTH 11 0
BBX 11 17 1 0
ATTRIBUTES 0215
BITMAP
0020
0020
0020
0040
0040
0040
0080
0080
0080
2080
2100
1100
1900
0900
0d00
0600
0200
ENDCHAR
STARTCHAR C000210
ENCODING 136
SWIDTH 528 0
DWIDTH 11 0
BBX 11 17 0 0
ATTRIBUTES 0202
BITMAP
0020
0020
0040
0040
0040
4080
c080
2080
2100
1100
1100
1300
0a00
0a00
0e00
0400
0400
ENDCHAR
STARTCHAR C000211
ENCODING 137
SWIDTH 384 0
DWIDTH 8 0
BBX 5 17 1 0
ATTRIBUTES 0196
BITMAP
08
08
08
08
08
08
08
08
08
08
c8
48
28
28
18
18
08
ENDCHAR
STARTCHAR C000212
ENCODING 138
SWIDTH 816 0
DWIDTH 17 0
BBX 16 18 0 -2
ATTRIBUTES 0336
BITMAP
fc3f
300c
300c
300c
300c
300c
300c
300c
300c
300c
300c
300c
300c
300c
300c
300c
300c
7ffe
ENDCHAR
STARTCHAR C000213
ENCODING 139
SWIDTH 816 0
DWIDTH 17 0
BBX 16 18 0 -2
ATTRIBUTES 0336
BITMAP
7ffe
300c
300c
300c
300c
300c
300c
300c
300c
300c
300c
300c
300c
300c
300c
300c
300c
fc3f
ENDCHAR
STARTCHAR C000214
ENCODING 140
SWIDTH 720 0
DWIDTH 15 0
BBX 14 18 0 -2
ATTRIBUTES 02c8
BITMAP
fff8
6008
3008
3804
1c00
0c00
0600
0300
0300
0200
0200
0400
0800
1000
2004
200c
7ffc
fff8
ENDCHAR
STARTCHAR C000215
ENCODING 141
SWIDTH 816 0
DWIDTH 17 0
BBX 18 19 0 -2
ATTRIBUTES 0334
BITMAP
ffffc0
600080
700180
300100
380300
380200
1c0600
1c0400
0e0c00
0e0800
061800
071000
033000
03a000
01e000
01c000
01c000
008000
008000
ENDCHAR
STARTCHAR C000216
ENCODING 142
SWIDTH 816 0
DWIDTH 17 0
BBX 18 18 0 -1
ATTRIBUTES 0340
BITMAP
c000c0
600180
600180
700380
300300
3fff00
1ffe00
180600
080e00
080c00
0c1c00
041800
061800
023000
033000
037000
016000
01e000
ENDCHAR
STARTCHAR C000217
ENCODING 143
SWIDTH 1632 0
DWIDTH 34 0
BBX 35 18 1 0
ATTRIBUTES 06a3
BITMAP
3030000000
f030000000
3010000000
3000000000
3000000000
3000000000
3030678f00
30f1ef9f80
303070e380
303060c180
303060c180
303060c180
303060c180
303060c180
303060c180
303060c180
303060c180
7c78f3e3c0
ENDCHAR
STARTCHAR C000220
ENCODING 144
SWIDTH 336 0
DWIDTH 7 0
BBX 6 3 1 12
ATTRIBUTES 014c
BITMAP
30
48
84
ENDCHAR
STARTCHAR C000221
ENCODING 145
SWIDTH 336 0
DWIDTH 7 0
BBX 6 3 0 12
ATTRIBUTES 014c
BITMAP
84
68
30
ENDCHAR
STARTCHAR C000222
ENCODING 146
SWIDTH 336 0
DWIDTH 7 0
BBX 6 3 0 12
ATTRIBUTES 014c
BITMAP
84
68
30
ENDCHAR
STARTCHAR C000223
ENCODING 147
SWIDTH 336 0
DWIDTH 7 0
BBX 3 4 3 11
ATTRIBUTES 014c
BITMAP
60
40
80
80
ENDCHAR
STARTCHAR C000224
ENCODING 148
SWIDTH 336 0
DWIDTH 7 0
BBX 3 3 1 12
ATTRIBUTES 014c
BITMAP
c0
40
20
ENDCHAR
STARTCHAR C000225
ENCODING 149
SWIDTH 336 0
DWIDTH 7 0
BBX 7 3 0 12
ATTRIBUTES 014c
BITMAP
f2
be
84
ENDCHAR
STARTCHAR C000226
ENCODING 150
SWIDTH 480 0
DWIDTH 10 0
BBX 10 1 0 14
ATTRIBUTES 01f4
BITMAP
ffc0
ENDCHAR
STARTCHAR C000227
ENCODING 151
SWIDTH 480 0
DWIDTH 10 0
BBX 10 5 0 12
ATTRIBUTES 01f4
BITMAP
0100
0180
ffc0
0180
0100
ENDCHAR
STARTCHAR C000230
ENCODING 152
SWIDTH 288 0
DWIDTH 6 0
BBX 2 2 2 13
ATTRIBUTES 0108
BITMAP
c0
c0
ENDCHAR
STARTCHAR C000231
ENCODING 153
SWIDTH 288 0
DWIDTH 6 0
BBX 5 2 0 13
ATTRIBUTES 0108
BITMAP
d8
c8
ENDCHAR
STARTCHAR C000232
ENCODING 154
SWIDTH 432 0
DWIDTH 9 0
BBX 8 2 0 13
ATTRIBUTES 01a3
BITMAP
db
cb
ENDCHAR
STARTCHAR C000233
ENCODING 155
SWIDTH 240 0
DWIDTH 5 0
BBX 5 5 0 10
ATTRIBUTES 0103
BITMAP
70
88
88
c8
70
ENDCHAR
STARTCHAR C000234
ENCODING 156
SWIDTH 816 0
DWIDTH 17 0
BBX 12 12 2 0
ATTRIBUTES 031a
BITMAP
0200
0200
0700
0500
0980
0880
10c0
1040
2060
2020
4030
4010
ENDCHAR
STARTCHAR C000235
ENCODING 157
SWIDTH 816 0
DWIDTH 17 0
BBX 12 12 2 0
ATTRIBUTES 031a
BITMAP
4010
4030
2020
2060
1040
10c0
0880
0980
0500
0700
0200
0200
ENDCHAR
STARTCHAR C000236
ENCODING 158
SWIDTH 480 0
DWIDTH 10 0
BBX 11 11 0 0
ATTRIBUTES 01f5
BITMAP
ffe0
8020
8020
8020
8020
8020
8020
8020
8020
8020
ffe0
ENDCHAR
STARTCHAR C000237
ENCODING 159
SWIDTH 480 0
DWIDTH 10 0
BBX 11 11 0 0
ATTRIBUTES 01f5
BITMAP
ffe0
8020
8020
8020
8020
8020
8020
8020
8020
8020
ffe0
ENDCHAR
STARTCHAR nobreakspace
ENCODING 160
SWIDTH 384 0
DWIDTH 8 0
BBX 4 22 1 -4
ATTRIBUTES 017e
BITMAP
30
20
40
40
40
40
20
20
20
20
c0
20
20
20
20
20
40
40
40
40
20
30
ENDCHAR
STARTCHAR exclamdown
ENCODING 161
SWIDTH 384 0
DWIDTH 8 0
BBX 4 22 1 -4
ATTRIBUTES 017e
BITMAP
c0
40
20
20
20
20
40
40
40
40
30
20
40
40
40
40
20
20
20
20
40
c0
ENDCHAR
STARTCHAR cent
ENCODING 162
SWIDTH 288 0
DWIDTH 6 0
BBX 4 20 2 -3
ATTRIBUTES 0137
BITMAP
20
20
20
40
40
40
80
80
80
80
80
80
80
80
40
40
40
20
20
10
ENDCHAR
STARTCHAR sterling
ENCODING 163
SWIDTH 288 0
DWIDTH 6 0
BBX 4 20 1 -3
ATTRIBUTES 0137
BITMAP
40
40
20
20
20
20
10
10
10
10
10
10
10
10
20
20
20
40
40
80
ENDCHAR
STARTCHAR currency
ENCODING 164
SWIDTH 336 0
DWIDTH 7 0
BBX 6 20 1 -2
ATTRIBUTES 014f
BITMAP
04
04
08
08
10
10
20
40
40
80
80
40
40
20
20
10
10
08
08
04
ENDCHAR
STARTCHAR yen
ENCODING 165
SWIDTH 336 0
DWIDTH 7 0
BBX 6 20 0 -2
ATTRIBUTES 014f
BITMAP
80
40
40
20
20
10
10
08
08
04
04
04
08
08
10
20
20
40
40
80
ENDCHAR
STARTCHAR brokenbar
ENCODING 166
SWIDTH 288 0
DWIDTH 6 0
BBX 4 22 2 -4
ATTRIBUTES 0119
BITMAP
f0
80
80
80
80
80
80
80
80
80
80
80
80
80
80
80
80
80
80
80
80
f0
ENDCHAR
STARTCHAR section
ENCODING 167
SWIDTH 288 0
DWIDTH 6 0
BBX 4 22 0 -4
ATTRIBUTES 0119
BITMAP
f0
10
10
10
10
10
10
10
10
10
10
10
10
10
10
10
10
10
10
10
10
f0
ENDCHAR
STARTCHAR diaeresis
ENCODING 168
SWIDTH 336 0
DWIDTH 7 0
BBX 3 9 3 0
ATTRIBUTES 0157
BITMAP
60
80
80
80
80
80
80
80
80
ENDCHAR
STARTCHAR copyright
ENCODING 169
SWIDTH 336 0
DWIDTH 7 0
BBX 3 17 1 0
ATTRIBUTES 0157
BITMAP
20
20
20
20
20
20
20
20
c0
20
20
20
20
20
20
20
20
ENDCHAR
STARTCHAR ordfeminine
ENCODING 170
SWIDTH 336 0
DWIDTH 7 0
BBX 3 9 3 0
ATTRIBUTES 0157
BITMAP
80
80
80
80
80
80
80
40
60
ENDCHAR
STARTCHAR guillemotleft
ENCODING 171
SWIDTH 336 0
DWIDTH 7 0
BBX 3 9 1 0
ATTRIBUTES 0157
BITMAP
c0
20
20
20
20
20
20
20
20
ENDCHAR
STARTCHAR notsign
ENCODING 172
SWIDTH 336 0
DWIDTH 7 0
BBX 4 17 3 0
ATTRIBUTES 0157
BITMAP
80
80
80
80
80
80
80
40
70
80
80
80
80
80
80
80
80
ENDCHAR
STARTCHAR hyphen
ENCODING 173
SWIDTH 336 0
DWIDTH 7 0
BBX 3 9 1 0
ATTRIBUTES 0157
BITMAP
20
20
20
20
20
20
20
40
c0
ENDCHAR
STARTCHAR registered
ENCODING 174
SWIDTH 336 0
DWIDTH 7 0
BBX 1 8 3 0
ATTRIBUTES 0157
BITMAP
80
80
80
80
80
80
80
80
ENDCHAR
STARTCHAR macron
ENCODING 175
SWIDTH 384 0
DWIDTH 8 0
BBX 5 17 3 0
ATTRIBUTES 018d
BITMAP
08
08
10
20
20
20
40
40
40
40
c0
80
80
80
80
80
80
ENDCHAR
STARTCHAR degree
ENCODING 176
SWIDTH 384 0
DWIDTH 8 0
BBX 1 8 3 0
ATTRIBUTES 018d
BITMAP
80
80
80
80
80
80
80
80
ENDCHAR
STARTCHAR plusminus
ENCODING 177
SWIDTH 384 0
DWIDTH 8 0
BBX 5 17 3 0
ATTRIBUTES 018d
BITMAP
80
80
80
80
80
80
c0
40
40
40
40
20
20
10
10
08
08
ENDCHAR
STARTCHAR twosuperior
ENCODING 178
SWIDTH 384 0
DWIDTH 8 0
BBX 5 17 1 0
ATTRIBUTES 018d
BITMAP
80
80
40
20
20
20
10
10
18
08
08
08
08
08
08
08
08
ENDCHAR
STARTCHAR threesuperior
ENCODING 179
SWIDTH 384 0
DWIDTH 8 0
BBX 1 8 5 0
ATTRIBUTES 018d
BITMAP
80
80
80
80
80
80
80
80
ENDCHAR
STARTCHAR acute
ENCODING 180
SWIDTH 384 0
DWIDTH 8 0
BBX 5 17 1 0
ATTRIBUTES 018d
BITMAP
08
08
08
08
08
08
18
10
10
10
10
20
20
20
40
80
80
ENDCHAR
STARTCHAR mu
ENCODING 181
SWIDTH 384 0
DWIDTH 8 0
BBX 4 18 3 0
ATTRIBUTES 0169
BITMAP
f0
80
80
80
80
80
80
80
80
80
80
80
80
80
80
80
80
80
ENDCHAR
STARTCHAR paragraph
ENCODING 182
SWIDTH 384 0
DWIDTH 8 0
BBX 1 8 3 0
ATTRIBUTES 0169
BITMAP
80
80
80
80
80
80
80
80
ENDCHAR
STARTCHAR periodcentered
ENCODING 183
SWIDTH 384 0
DWIDTH 8 0
BBX 4 18 3 0
ATTRIBUTES 0169
BITMAP
80
80
80
80
80
80
80
80
80
80
80
80
80
80
80
80
80
f0
ENDCHAR
STARTCHAR cedilla
ENCODING 184
SWIDTH 384 0
DWIDTH 8 0
BBX 4 18 1 0
ATTRIBUTES 0169
BITMAP
f0
10
10
10
10
10
10
10
10
10
10
10
10
10
10
10
10
10
ENDCHAR
STARTCHAR onesuperior
ENCODING 185
SWIDTH 384 0
DWIDTH 8 0
BBX 1 8 4 0
ATTRIBUTES 0169
BITMAP
80
80
80
80
80
80
80
80
ENDCHAR
STARTCHAR masculine
ENCODING 186
SWIDTH 384 0
DWIDTH 8 0
BBX 4 18 1 0
ATTRIBUTES 0169
BITMAP
10
10
10
10
10
10
10
10
10
10
10
10
10
10
10
10
10
f0
ENDCHAR
STARTCHAR guillemotright
ENCODING 187
SWIDTH 480 0
DWIDTH 10 0
BBX 11 11 0 0
ATTRIBUTES 01f5
BITMAP
ffe0
8020
8020
8020
8020
8020
8020
8020
8020
8020
ffe0
ENDCHAR
STARTCHAR onequarter
ENCODING 188
SWIDTH 384 0
DWIDTH 8 0
BBX 1 8 4 0
ATTRIBUTES 0169
BITMAP
80
80
80
80
80
80
80
80
ENDCHAR
STARTCHAR onehalf
ENCODING 189
SWIDTH 432 0
DWIDTH 9 0
BBX 8 22 1 -6
ATTRIBUTES 01b2
BITMAP
01
01
01
02
02
02
04
04
08
08
08
10
10
10
20
20
20
40
40
40
80
80
ENDCHAR
STARTCHAR threequarters
ENCODING 190
SWIDTH 432 0
DWIDTH 9 0
BBX 8 22 1 -6
ATTRIBUTES 01b2
BITMAP
80
80
40
40
40
20
20
20
10
10
10
08
08
08
04
04
04
02
02
01
01
01
ENDCHAR
STARTCHAR questiondown
ENCODING 191
SWIDTH 864 0
DWIDTH 18 0
BBX 15 15 2 0
ATTRIBUTES 037b
BITMAP
fff8
800c
800e
800e
800e
800e
800e
800e
800e
800e
800e
800e
fffe
fffe
7ffe
ENDCHAR
STARTCHAR Agrave
ENCODING 192
SWIDTH 288 0
DWIDTH 6 0
BBX 4 21 2 -3
ATTRIBUTES 0119
BITMAP
f0
80
80
80
80
80
80
80
80
80
80
80
80
80
80
80
80
80
80
80
80
ENDCHAR
STARTCHAR Aacute
ENCODING 193
SWIDTH 288 0
DWIDTH 6 0
BBX 4 21 2 -4
ATTRIBUTES 0119
BITMAP
80
80
80
80
80
80
80
80
80
80
80
80
80
80
80
80
80
80
80
80
f0
ENDCHAR
STARTCHAR Acircumflex
ENCODING 194
SWIDTH 288 0
DWIDTH 6 0
BBX 4 21 0 -3
ATTRIBUTES 0119
BITMAP
f0
10
10
10
10
10
10
10
10
10
10
10
10
10
10
10
10
10
10
10
10
ENDCHAR
STARTCHAR Atilde
ENCODING 195
SWIDTH 288 0
DWIDTH 6 0
BBX 4 21 0 -4
ATTRIBUTES 0119
BITMAP
10
10
10
10
10
10
10
10
10
10
10
10
10
10
10
10
10
10
10
10
f0
ENDCHAR
STARTCHAR Adiaeresis
ENCODING 196
SWIDTH 480 0
DWIDTH 10 0
BBX 11 11 0 0
ATTRIBUTES 01f5
BITMAP
ffe0
8020
8020
8020
8020
8020
8020
8020
8020
8020
ffe0
ENDCHAR
STARTCHAR Aring
ENCODING 197
SWIDTH 384 0
DWIDTH 8 0
BBX 1 8 5 0
ATTRIBUTES 0196
BITMAP
80
80
80
80
80
80
80
80
ENDCHAR
STARTCHAR AE
ENCODING 198
SWIDTH 624 0
DWIDTH 13 0
BBX 13 15 0 0
ATTRIBUTES 027e
BITMAP
1ff8
0e08
0c18
0c00
0c00
0c00
1c00
1800
1800
1800
1800
3800
3000
3000
fc00
ENDCHAR
STARTCHAR Ccedilla
ENCODING 199
SWIDTH 768 0
DWIDTH 16 0
BBX 14 15 1 0
ATTRIBUTES 0318
BITMAP
0040
00e0
01e0
0160
0260
0470
0470
0830
0838
1038
2018
2018
401c
801c
fffc
ENDCHAR
STARTCHAR Egrave
ENCODING 200
SWIDTH 816 0
DWIDTH 17 0
BBX 15 16 1 0
ATTRIBUTES 0340
BITMAP
01f0
0618
0c0c
3006
3006
6006
6426
c426
c7c6
c44c
c84c
c018
c018
6070
30c0
1f00
ENDCHAR
STARTCHAR Eacute
ENCODING 201
SWIDTH 816 0
DWIDTH 17 0
BBX 16 15 0 0
ATTRIBUTES 0338
BITMAP
0030
0070
0070
00b0
00b0
0138
0218
0218
0418
081c
081c
100c
200c
200e
f03f
ENDCHAR
STARTCHAR Ecircumflex
ENCODING 202
SWIDTH 720 0
DWIDTH 15 0
BBX 14 15 0 0
ATTRIBUTES 02cc
BITMAP
0ffc
0ffc
1004
0000
0008
0810
0ff0
0810
1010
0000
0000
4008
c008
fff8
fff0
ENDCHAR
STARTCHAR Ediaeresis
ENCODING 203
SWIDTH 864 0
DWIDTH 18 0
BBX 18 15 0 0
ATTRIBUTES 0369
BITMAP
1fffc0
0e0300
0c0300
0c0700
0c0600
0c0600
1c0600
180600
180e00
180c00
180c00
380c00
300c00
301c00
fc7e00
ENDCHAR
STARTCHAR Igrave
ENCODING 204
SWIDTH 720 0
DWIDTH 15 0
BBX 15 15 0 0
ATTRIBUTES 02ce
BITMAP
1ffe
0e02
0e04
0700
0380
0180
01c0
00c0
0180
0200
0400
1800
2008
4018
fff8
ENDCHAR
STARTCHAR Iacute
ENCODING 205
SWIDTH 720 0
DWIDTH 15 0
BBX 13 15 2 0
ATTRIBUTES 02bd
BITMAP
e018
3020
1840
1c80
0c80
0d00
0e00
0e00
0c00
0c00
0c00
0c00
1800
1800
7e00
ENDCHAR
STARTCHAR Icircumflex
ENCODING 206
SWIDTH 720 0
DWIDTH 15 0
BBX 14 15 1 0
ATTRIBUTES 02ea
BITMAP
03e0
01c0
0180
0ff0
3398
638c
c30c
c30c
c30c
c718
6730
1fc0
0600
0600
3f80
ENDCHAR
STARTCHAR Idiaeresis
ENCODING 207
SWIDTH 816 0
DWIDTH 17 0
BBX 15 15 2 0
ATTRIBUTES 0322
BITMAP
e7ce
6318
6310
6730
6630
6660
2640
3f80
0e00
0c00
0c00
0c00
0c00
1c00
7e00
ENDCHAR
STARTCHAR ETH
ENCODING 208
SWIDTH 864 0
DWIDTH 18 0
BBX 16 16 1 0
ATTRIBUTES 0379
BITMAP
00f8
030c
0606
0c03
1803
1803
3003
3003
3006
3006
3004
100c
1818
4822
4446
fc7e
ENDCHAR
STARTCHAR Ntilde
ENCODING 209
SWIDTH 816 0
DWIDTH 17 0
BBX 14 11 2 0
ATTRIBUTES 0343
BITMAP
0f18
3398
2198
61f0
e1e0
c0e0
c0e0
c1e0
c330
6c30
7018
ENDCHAR
STARTCHAR Ograve
ENCODING 210
SWIDTH 672 0
DWIDTH 14 0
BBX 12 21 1 -4
ATTRIBUTES 02a5
BITMAP
01e0
0730
0e30
0c30
0c20
1c20
1cc0
1c80
1bc0
38e0
3870
3830
3830
3020
7020
78c0
7f00
6000
6000
c000
c000
ENDCHAR
STARTCHAR Oacute
ENCODING 211
SWIDTH 672 0
DWIDTH 14 0
BBX 13 15 1 -4
ATTRIBUTES 02b2
BITMAP
7018
3818
1c30
0c20
0c40
0c40
0e80
0700
0600
0600
1e00
2600
4c00
5c00
3800
ENDCHAR
STARTCHAR Ocircumflex
ENCODING 212
SWIDTH 672 0
DWIDTH 14 0
BBX 11 16 2 0
ATTRIBUTES 0290
BITMAP
07c0
0860
1800
0c00
0600
0700
0f80
3180
60c0
60c0
c0c0
c0c0
c180
c180
6300
3c00
ENDCHAR
STARTCHAR Otilde
ENCODING 213
SWIDTH 528 0
DWIDTH 11 0
BBX 9 11 1 0
ATTRIBUTES 021e
BITMAP
0f80
1800
2000
6000
c000
fe00
c000
c000
c000
6100
3f00
ENDCHAR
STARTCHAR Odiaeresis
ENCODING 214
SWIDTH 672 0
DWIDTH 14 0
BBX 13 20 2 -4
ATTRIBUTES 02ae
BITMAP
0070
81f0
e3c0
7c00
0800
1800
1000
2000
6000
6000
c000
c000
c000
e000
7f80
3fc0
0040
0040
0880
1f00
ENDCHAR
STARTCHAR multiply
ENCODING 215
SWIDTH 672 0
DWIDTH 14 0
BBX 11 16 2 -4
ATTRIBUTES 02ac
BITMAP
63c0
67e0
3860
3060
7060
60e0
60c0
60c0
60c0
c0c0
c1c0
c180
0180
0180
0180
0180
ENDCHAR
STARTCHAR Ooblique
ENCODING 216
SWIDTH 720 0
DWIDTH 15 0
BBX 11 16 2 0
ATTRIBUTES 02d0
BITMAP
0380
04c0
0840
1060
3060
3060
6060
6060
ffe0
c0c0
c1c0
c180
c180
c300
6600
3800
ENDCHAR
STARTCHAR Ugrave
ENCODING 217
SWIDTH 384 0
DWIDTH 8 0
BBX 5 11 2 0
ATTRIBUTES 0191
BITMAP
70
60
60
60
60
c0
c0
c0
c0
c8
78
ENDCHAR
STARTCHAR Uacute
ENCODING 218
SWIDTH 672 0
DWIDTH 14 0
BBX 11 11 2 0
ATTRIBUTES 028e
BITMAP
3060
30e0
3100
6200
6400
6c00
7600
6700
c300
c180
c180
ENDCHAR
STARTCHAR Ucircumflex
ENCODING 219
SWIDTH 672 0
DWIDTH 14 0
BBX 12 16 1 0
ATTRIBUTES 02b2
BITMAP
1c00
1c00
0600
0600
0600
0300
0700
0b00
0b80
1180
2180
2180
41c0
40c0
c0e0
c060
ENDCHAR
STARTCHAR Udiaeresis
ENCODING 220
SWIDTH 672 0
DWIDTH 14 0
BBX 12 15 1 -4
ATTRIBUTES 02b4
BITMAP
1830
1830
3060
3060
3060
3060
3060
70c0
70c0
7360
7c60
6000
6000
c000
c000
ENDCHAR
STARTCHAR Yacute
ENCODING 221
SWIDTH 672 0
DWIDTH 14 0
BBX 12 11 1 0
ATTRIBUTES 02b2
BITMAP
6030
3030
1820
1860
1840
1880
1880
0d00
0e00
0c00
0800
ENDCHAR
STARTCHAR THORN
ENCODING 222
SWIDTH 624 0
DWIDTH 13 0
BBX 10 21 2 -4
ATTRIBUTES 027f
BITMAP
8000
c7c0
3f00
1800
3000
3000
3000
1fc0
0f80
1800
6000
6000
c000
c000
e000
7f00
3f80
0080
0080
3100
3e00
ENDCHAR
STARTCHAR ssharp
ENCODING 223
SWIDTH 624 0
DWIDTH 13 0
BBX 10 12 2 0
ATTRIBUTES 0289
BITMAP
0f00
1180
30c0
60c0
e0c0
c0c0
c0c0
c1c0
c180
c300
6600
3c00
ENDCHAR
STARTCHAR agrave
ENCODING 224
SWIDTH 864 0
DWIDTH 18 0
BBX 15 11 2 0
ATTRIBUTES 0354
BITMAP
fffe
fffe
9830
1830
1870
3060
3060
3060
3060
3060
6070
ENDCHAR
STARTCHAR aacute
ENCODING 225
SWIDTH 672 0
DWIDTH 14 0
BBX 12 16 1 -4
ATTRIBUTES 0294
BITMAP
03c0
0660
0c30
1830
3830
3030
3020
3060
7040
60c0
7900
7e00
6000
c000
c000
c000
ENDCHAR
STARTCHAR acircumflex
ENCODING 226
SWIDTH 768 0
DWIDTH 16 0
BBX 15 11 2 0
ATTRIBUTES 0306
BITMAP
0ffe
307e
2040
6060
c060
c060
c0e0
c0c0
c180
6300
3e00
ENDCHAR
STARTCHAR atilde
ENCODING 227
SWIDTH 672 0
DWIDTH 14 0
BBX 12 11 1 0
ATTRIBUTES 02a3
BITMAP
7ff0
fff0
8600
0600
0e00
0c00
0c00
0c00
0c00
0c00
0600
ENDCHAR
STARTCHAR adiaeresis
ENCODING 228
SWIDTH 672 0
DWIDTH 14 0
BBX 10 12 2 0
ATTRIBUTES 0292
BITMAP
61c0
61c0
60c0
60c0
c0c0
c0c0
c080
c080
c100
c100
6600
3800
ENDCHAR
STARTCHAR aring
ENCODING 229
SWIDTH 864 0
DWIDTH 18 0
BBX 15 20 2 -4
ATTRIBUTES 036c
BITMAP
00c0
00c0
00c0
00c0
00c0
0ff0
399c
718c
6186
c186
c306
c306
c30c
6318
3370
0f80
0600
0600
0600
0600
ENDCHAR
STARTCHAR ae
ENCODING 230
SWIDTH 720 0
DWIDTH 15 0
BBX 12 15 1 -4
ATTRIBUTES 02bb
BITMAP
7030
3830
1c20
0c40
0c80
0680
0700
0700
0b00
1300
2380
6180
41c0
c0c0
c0e0
ENDCHAR
STARTCHAR ccedilla
ENCODING 231
SWIDTH 912 0
DWIDTH 19 0
BBX 15 17 2 -4
ATTRIBUTES 038e
BITMAP
00c0
0180
6186
6186
6186
e186
c30c
c30c
c30c
c318
c310
6660
1f80
0600
0600
0600
0c00
ENDCHAR
STARTCHAR egrave
ENCODING 232
SWIDTH 1008 0
DWIDTH 21 0
BBX 17 12 2 0
ATTRIBUTES 03e4
BITMAP
000600
180300
30c180
70c180
61c180
e1c180
c18180
c18100
c1c300
c2c200
666400
383800
ENDCHAR
STARTCHAR eacute
ENCODING 233
SWIDTH 528 0
DWIDTH 11 0
BBX 9 11 1 0
ATTRIBUTES 0217
BITMAP
0f80
3880
3000
3800
1f00
3800
6000
e000
e000
e100
3e00
ENDCHAR
STARTCHAR ecircumflex
ENCODING 234
SWIDTH 720 0
DWIDTH 15 0
BBX 13 16 1 0
ATTRIBUTES 02cc
BITMAP
0380
04c0
0840
1860
3060
3060
3860
3ff8
0ff8
00c0
00c0
6080
e080
7100
3a00
1c00
ENDCHAR
STARTCHAR ediaeresis
ENCODING 235
SWIDTH 1008 0
DWIDTH 21 0
BBX 20 11 1 0
ATTRIBUTES 03e2
BITMAP
7ffff0
fffff0
0801c0
1020c0
3060c0
60e0c0
60c0c0
60c080
70c100
396200
1e3c00
ENDCHAR
STARTCHAR igrave
ENCODING 236
SWIDTH 672 0
DWIDTH 14 0
BBX 10 16 2 -4
ATTRIBUTES 029a
BITMAP
0f00
1180
30c0
20c0
60c0
40c0
c080
c180
c300
e600
b800
8000
c000
e000
7f00
3f00
ENDCHAR
STARTCHAR iacute
ENCODING 237
SWIDTH 624 0
DWIDTH 13 0
BBX 12 15 1 -4
ATTRIBUTES 027c
BITMAP
07e0
0860
1000
2000
6000
c000
c000
c000
e000
7f80
3fc0
00c0
0040
1080
3f00
ENDCHAR
STARTCHAR icircumflex
ENCODING 238
SWIDTH 912 0
DWIDTH 19 0
BBX 17 15 1 -4
ATTRIBUTES 039f
BITMAP
0f1e00
31a100
61c180
40c180
c0c180
c18300
c18300
c18600
618c00
319800
1fe000
030000
030000
070000
060000
ENDCHAR
STARTCHAR idiaeresis
ENCODING 239
SWIDTH 672 0
DWIDTH 14 0
BBX 10 17 2 0
ATTRIBUTES 028e
BITMAP
1e00
3f00
4180
0080
00c0
0040
0f40
10c0
20c0
6040
4040
c080
c080
c080
c100
6600
3800
ENDCHAR
STARTCHAR eth
ENCODING 240
SWIDTH 576 0
DWIDTH 12 0
BBX 11 18 1 0
ATTRIBUTES 024d
BITMAP
01c0
0320
0620
0420
0440
8c80
ef00
1800
1800
1800
3800
3000
3080
3080
3100
3100
3600
1800
ENDCHAR
STARTCHAR ntilde
ENCODING 241
SWIDTH 336 0
DWIDTH 7 0
BBX 4 11 1 0
ATTRIBUTES 0151
BITMAP
f0
30
30
60
60
60
60
60
c0
c0
f0
ENDCHAR
STARTCHAR ograve
ENCODING 242
SWIDTH 384 0
DWIDTH 8 0
BBX 9 15 -2 -4
ATTRIBUTES 0187
BITMAP
0780
0180
0100
0300
0300
0300
0300
0300
0600
0600
0600
0600
8c00
8800
f000
ENDCHAR
STARTCHAR oacute
ENCODING 243
SWIDTH 720 0
DWIDTH 15 0
BBX 14 17 0 -4
ATTRIBUTES 02d5
BITMAP
0400
0808
187c
119c
320c
340c
380c
3008
1018
3810
2930
4d60
4dc0
8c00
8c00
8800
7000
ENDCHAR
STARTCHAR ocircumflex
ENCODING 244
SWIDTH 672 0
DWIDTH 14 0
BBX 10 15 2 0
ATTRIBUTES 0298
BITMAP
00c0
00c0
00c0
00c0
00c0
00c0
00c0
ffc0
00c0
00c0
00c0
00c0
00c0
00c0
ffc0
ENDCHAR
STARTCHAR otilde
ENCODING 245
SWIDTH 768 0
DWIDTH 16 0
BBX 13 15 2 0
ATTRIBUTES 0300
BITMAP
ff00
c1c0
0060
0030
0030
0018
0018
c018
c018
c018
c030
c030
c060
c1c0
ff00
ENDCHAR
STARTCHAR odiaeresis
ENCODING 246
SWIDTH 624 0
DWIDTH 13 0
BBX 9 17 2 -1
ATTRIBUTES 0274
BITMAP
1f80
3180
6080
6000
6000
2000
1800
0e00
3000
6000
c000
c000
c000
c080
6080
7180
1e00
ENDCHAR
STARTCHAR division
ENCODING 247
SWIDTH 864 0
DWIDTH 18 0
BBX 15 15 2 0
ATTRIBUTES 036c
BITMAP
fc7e
8846
9822
3030
6018
6018
c00c
c00c
c00c
c00c
c00c
6018
3030
1860
0fc0
ENDCHAR
STARTCHAR oslash
ENCODING 248
SWIDTH 768 0
DWIDTH 16 0
BBX 16 19 0 -7
ATTRIBUTES 0304
BITMAP
07b0
0c70
1c70
1830
3830
3020
3061
3062
30e4
1978
0ee0
03c0
0cc0
30c0
6180
c180
c100
e600
3c00
ENDCHAR
STARTCHAR ugrave
ENCODING 249
SWIDTH 816 0
DWIDTH 17 0
BBX 16 18 1 0
ATTRIBUTES 032f
BITMAP
01c0
0320
0620
0c20
0c40
8d80
fe00
19e0
1a20
1c20
3420
3860
3061
3061
3062
7064
6068
6070
ENDCHAR
STARTCHAR uacute
ENCODING 250
SWIDTH 672 0
DWIDTH 14 0
BBX 13 18 1 -7
ATTRIBUTES 02a5
BITMAP
1cc0
2f80
2300
0200
0400
0808
1030
3e40
2380
0780
0980
3180
2180
4380
8300
8600
cc00
7800
ENDCHAR
STARTCHAR ucircumflex
ENCODING 251
SWIDTH 576 0
DWIDTH 12 0
BBX 12 16 1 0
ATTRIBUTES 0253
BITMAP
6000
f000
3b00
1c00
1c00
6c00
0e00
1600
1300
2300
2380
4180
41c0
c0c0
c0e0
e060
ENDCHAR
STARTCHAR udiaeresis
ENCODING 252
SWIDTH 576 0
DWIDTH 12 0
BBX 14 18 1 0
ATTRIBUTES 024d
BITMAP
01c0
0320
0620
7ffc
0440
8c80
ef00
1800
1800
1800
3800
3000
3080
3080
3100
3100
3600
1800
ENDCHAR
STARTCHAR yacute
ENCODING 253
SWIDTH 672 0
DWIDTH 14 0
BBX 12 13 1 0
ATTRIBUTES 029b
BITMAP
2000
7f00
7f80
00c0
0040
0040
0040
0040
0040
0040
0040
7fe0
7fe0
ENDCHAR
STARTCHAR thorn
ENCODING 254
SWIDTH 480 0
DWIDTH 10 0
BBX 8 13 1 0
ATTRIBUTES 01ce
BITMAP
40
70
78
18
0c
04
04
04
06
0a
12
f2
e1
ENDCHAR
STARTCHAR ydiaeresis
ENCODING 255
SWIDTH 624 0
DWIDTH 13 0
BBX 11 13 1 0
ATTRIBUTES 025e
BITMAP
8000
ffc0
ffc0
0100
0100
0100
0100
0100
0100
0100
0100
0100
0100
ENDCHAR
ENDFONT
